<?xml version="1.0" encoding="iso-8859-1"?>
<!-- Uploaded to: SVG Repo, www.svgrepo.com, Generator: SVG Repo Mixer Tools -->
<svg height="800px" width="800px" version="1.1" id="Layer_1" xmlns="http://www.w3.org/2000/svg" xmlns:xlink="http://www.w3.org/1999/xlink" 
	 viewBox="0 0 512.003 512.003" xml:space="preserve">
<circle style="fill:#FDDF6D;" cx="256.001" cy="256.001" r="256.001"/>
<path style="fill:#FCC56B;" d="M310.859,474.208c-141.385,0-256-114.615-256-256c0-75.537,32.722-143.422,84.757-190.281
	C56.738,70.303,0,156.525,0,256c0,141.385,114.615,256,256,256c65.849,0,125.883-24.87,171.243-65.718
	C392.325,464.135,352.77,474.208,310.859,474.208z"/>
<g>
	<circle style="fill:#FFFFFF;" cx="211.414" cy="176.754" r="74.262"/>
	<circle style="fill:#FFFFFF;" cx="419.675" cy="176.754" r="74.262"/>
</g>
<g>
	<path style="fill:#F9A880;" d="M145.987,279.188c-19.011,0-34.423,15.412-34.423,34.425h68.848
		C180.41,294.6,164.998,279.188,145.987,279.188z"/>
	<path style="fill:#F9A880;" d="M446.251,274.575c-19.011,0-34.423,15.412-34.423,34.425h68.848
		C480.676,289.987,465.264,274.575,446.251,274.575z"/>
</g>
<g>
	<circle style="fill:#7F184C;" cx="192.793" cy="137.929" r="20.829"/>
	<circle style="fill:#7F184C;" cx="404.095" cy="136.485" r="20.829"/>
	<path style="fill:#7F184C;" d="M277.536,417.445c-1.823,0-3.669-0.479-5.345-1.483c-4.934-2.958-6.535-9.354-3.577-14.287
		c14.357-23.945,39.926-38.821,66.73-38.821c8.119,0,16.116,1.275,23.771,3.789c5.466,1.794,8.44,7.679,6.644,13.144
		c-1.795,5.463-7.68,8.441-13.144,6.643c-5.554-1.823-11.366-2.748-17.271-2.748c-19.528,0-38.25,10.998-48.865,28.702
		C284.526,415.64,281.075,417.445,277.536,417.445z"/>
</g>
<ellipse transform="matrix(0.2723 -0.9622 0.9622 0.2723 145.8383 333.3812)" style="fill:#FCEB88;" cx="293.329" cy="70.272" rx="29.854" ry="53.46"/>
</svg>